HIERARCHY
ROOT Hips
{
 OFFSET 0.000000 0.000000 0.000000
 CHANNELS 6 Xposition Yposition Zposition Yrotation Xrotation Zrotation
 JOINT Chest
 {
  OFFSET 0.000000 10.354800 0.006500
  CHANNELS 3 Yrotation Xrotation Zrotation
  JOINT Chest2
  {
   OFFSET 0.000000 10.435800 -0.013200
   CHANNELS 3 Yrotation Xrotation Zrotation
   JOINT Chest3
   {
    OFFSET 0.000000 10.393700 0.000000
    CHANNELS 3 Yrotation Xrotation Zrotation
    JOINT Chest4
    {
     OFFSET 0.000000 10.383100 0.000000
     CHANNELS 3 Yrotation Xrotation Zrotation
     JOINT Neck
     {
      OFFSET 0.000000 15.694000 0.000000
      CHANNELS 3 Yrotation Xrotation Zrotation
      JOINT Head
      {
       OFFSET 0.000000 9.711000 -0.028000
       CHANNELS 3 Yrotation Xrotation Zrotation
       End Site
       {
        OFFSET 0.000000 18.578700 -0.014800
       }
      }
     }
     JOINT RightCollar
     {
      OFFSET -3.157200 10.367500 0.000000
      CHANNELS 3 Yrotation Xrotation Zrotation
      JOINT RightShoulder
      {
       OFFSET -14.482500 0.000000 0.000000
       CHANNELS 3 Yrotation Xrotation Zrotation
       JOINT RightElbow
       {
        OFFSET 0.000000 -31.707800 0.000000
        CHANNELS 3 Yrotation Xrotation Zrotation
        JOINT RightWrist
        {
         OFFSET 0.000000 -25.659300 0.000000
         CHANNELS 3 Yrotation Xrotation Zrotation
         End Site
         {
          OFFSET 0.000000 -18.994300 0.000000
         }
        }
       }
      }
     }
     JOINT LeftCollar
     {
      OFFSET 3.157200 10.367500 0.000000
      CHANNELS 3 Yrotation Xrotation Zrotation
      JOINT LeftShoulder
      {
       OFFSET 14.482500 0.000000 0.000000
       CHANNELS 3 Yrotation Xrotation Zrotation
       JOINT LeftElbow
       {
        OFFSET 0.000000 -31.707800 0.000000
        CHANNELS 3 Yrotation Xrotation Zrotation
        JOINT LeftWrist
        {
         OFFSET 0.000000 -25.659300 0.000000
         CHANNELS 3 Yrotation Xrotation Zrotation
         End Site
         {
          OFFSET 0.000000 -18.994300 0.000000
         }
        }
       }
      }
     }
    }
   }
  }
 }
 JOINT RightHip
 {
  OFFSET -8.365600 -0.032100 -0.003200
  CHANNELS 3 Yrotation Xrotation Zrotation
  JOINT RightKnee
  {
   OFFSET 0.000000 -43.980000 0.003100
   CHANNELS 3 Yrotation Xrotation Zrotation
   JOINT RightAnkle
   {
    OFFSET 0.000000 -42.882800 0.005200
    CHANNELS 3 Yrotation Xrotation Zrotation
    JOINT RightToe
    {
     OFFSET 0.000000 -4.915500 10.826300
     CHANNELS 3 Yrotation Xrotation Zrotation
     End Site
     {
      OFFSET 0.000000 -1.517500 6.175900
     }
    }
   }
  }
 }
 JOINT LeftHip
 {
  OFFSET 8.365600 -0.032100 -0.003200
  CHANNELS 3 Yrotation Xrotation Zrotation
  JOINT LeftKnee
  {
   OFFSET 0.000000 -43.980000 0.003100
   CHANNELS 3 Yrotation Xrotation Zrotation
   JOINT LeftAnkle
   {
    OFFSET 0.000000 -42.882800 0.005200
    CHANNELS 3 Yrotation Xrotation Zrotation
    JOINT LeftToe
    {
     OFFSET 0.000000 -4.915500 10.826300
     CHANNELS 3 Yrotation Xrotation Zrotation
     End Site
     {
      OFFSET 0.000000 -1.517500 6.175900
     }
    }
   }
  }
 }
}
MOTION
Frames: 11
Frame Time: 0.008333
0.000000 91.618600 0.000000 0.000000 -5.767877 0.000000 0.000000 11.653817 0.000000 0.000000 -5.885947 0.000000 0.000000 -0.000000 0.000000 0.000000 -0.000000 0.000000 0.000000 12.528835 0.000000 0.000000 0.711642 0.000000 0.000000 -0.000000 0.000000 0.000000 0.000000 -90.000000 0.000000 -2.309062 0.000000 0.000000 2.309062 0.000000 0.000000 -0.000000 0.000000 0.000000 -0.000000 90.000000 0.000000 -2.309062 0.000000 0.000000 2.309062 0.000000 0.000000 8.520406 0.000000 0.000000 1.905762 0.000000 -0.000000 -4.658285 0.000000 0.000000 -0.000000 0.000000 0.000000 8.520406 0.000000 0.000000 1.905762 0.000000 -0.000000 -4.658285 0.000000 0.000000 -0.000000 0.000000
-11.234378 146.957271 26.575624 177.919335 -17.465032 -3.275618 -1.710908 9.946454 3.114154 -0.127930 0.633126 0.215992 -0.217217 1.096374 0.372572 -1.621656 9.183342 3.006925 -3.751242 21.296719 -0.669516 -3.871091 -2.969673 0.137637 4.497877 5.197076 -4.285766 19.000778 -12.399259 -6.615528 61.552155 -33.525188 -49.061806 0.609825 2.536555 -20.843170 -2.635253 8.785124 1.331238 -8.320597 -13.763049 -0.355467 -64.382057 -45.812262 49.467627 -4.755724 -9.226307 31.596618 9.299840 -61.144683 -11.948515 -142.810810 76.516873 -135.610323 -0.090750 -21.292392 2.208703 0.012706 -0.119280 0.006961 -18.175150 -62.913378 13.113371 113.759156 78.918815 112.105805 -2.184945 -15.068922 -2.444130 0.036007 0.118817 0.020210
-10.657767 140.422962 26.654735 177.944466 -17.463578 -3.340437 -1.727656 9.943143 3.169073 -0.126359 0.635814 0.217648 -0.221203 1.087314 0.369259 -1.624336 9.187806 3.008858 -3.743858 21.303544 -0.670059 -3.876199 -2.967947 0.134882 4.501663 5.201859 -4.287786 19.004560 -12.400037 -6.613449 61.537859 -33.527822 -49.047785 0.610314 2.523198 -20.852938 -2.628780 8.787703 1.331382 -8.317903 -13.758061 -0.363940 -64.381796 -45.800078 49.469876 -4.750909 -9.231965 31.594977 9.185089 -61.160074 -11.842827 -142.849702 76.510397 -135.647142 -0.084081 -21.357723 2.216777 0.005626 -0.070565 0.002553 -18.296126 -62.888112 13.228450 113.715170 78.925506 112.064542 -2.172692 -15.008170 -2.439803 0.016751 0.063610 0.007611
-10.186771 135.041718 26.719365 177.956807 -17.466051 -3.370519 -1.740468 9.941441 3.191416 -0.122564 0.639120 0.218704 -0.221464 1.086532 0.369538 -1.628563 9.181624 3.004504 -3.745213 21.308457 -0.670472 -3.876104 -2.961044 0.133096 4.501302 5.209129 -4.286003 19.021521 -12.401725 -6.621529 61.519006 -33.531774 -49.031925 0.604165 2.511096 -20.862650 -2.629687 8.794916 1.333134 -8.306030 -13.753923 -0.370079 -64.370247 -45.802660 49.473364 -4.762498 -9.236049 31.582918 9.129584 -61.166778 -11.793100 -142.864085 76.500645 -135.663183 -0.081128 -21.387927 2.223615 0.004084 -0.047533 0.001854 -18.341034 -62.868060 13.270335 113.645699 78.930101 111.996830 -2.165489 -14.982678 -2.437894 0.010194 0.041500 0.004630
-9.844769 131.155167 26.767033 177.969639 -17.464215 -3.404626 -1.756056 9.935093 3.217482 -0.118304 0.638641 0.219123 -0.219744 1.089824 0.370738 -1.634595 9.175115 3.000953 -3.753423 21.309519 -0.677260 -3.868131 -2.949593 0.130677 4.503216 5.212053 -4.289858 19.035350 -12.401791 -6.625855 61.502677 -33.533031 -49.007508 0.597597 2.500049 -20.875945 -2.622240 8.805611 1.334516 -8.302547 -13.752655 -0.372075 -64.361273 -45.811006 49.473386 -4.753041 -9.239864 31.569366 9.065021 -61.177374 -11.734595 -142.872431 76.495927 -135.673089 -0.077075 -21.417978 2.227611 0.001288 -0.017224 0.000585 -18.400869 -62.853198 13.326568 113.592286 78.936357 111.944517 -2.151120 -14.948893 -2.438045 0.002597 0.014952 0.001179
-9.629851 128.700554 26.796940 177.957843 -17.467157 -3.415004 -1.752233 9.931195 3.226399 -0.119595 0.639882 0.218634 -0.227903 1.080070 0.367719 -1.621067 9.182924 3.003832 -3.758076 21.312034 -0.680417 -3.868749 -2.942370 0.125389 4.505038 5.207941 -4.302220 19.038811 -12.397000 -6.609368 61.499094 -33.529245 -48.997737 0.594534 2.495858 -20.882996 -2.616377 8.813373 1.333844 -8.299088 -13.749746 -0.372680 -64.354750 -45.819203 49.474602 -4.753970 -9.239557 31.557104 9.050896 -61.180069 -11.706658 -142.883028 76.499325 -135.684211 -0.080016 -21.419876 2.229580 0.000829 -0.009746 0.000376 -18.402641 -62.843136 13.345320 113.566830 78.940168 111.923029 -2.149079 -14.940490 -2.437859 0.001449 0.008515 0.000658
-9.510863 127.350531 26.813837 177.947777 -17.469045 -3.424746 -1.749327 9.928352 3.234755 -0.117699 0.635876 0.219191 -0.226341 1.084927 0.368383 -1.626918 9.173019 3.003436 -3.763108 21.321752 -0.686351 -3.870473 -2.935700 0.120310 4.513765 5.217789 -4.306467 19.042621 -12.397781 -6.603408 61.494787 -33.523530 -48.988435 0.586319 2.490266 -20.897865 -2.610883 8.823333 1.325568 -8.278433 -13.739421 -0.376497 -64.361716 -45.827063 49.480537 -4.764709 -9.240192 31.546660 9.040778 -61.182813 -11.682164 -142.853647 76.495040 -135.656073 -0.073367 -21.417663 2.232965 -0.000152 -0.006229 -0.000069 -18.407462 -62.836748 13.365862 113.549691 78.946233 111.907684 -2.147198 -14.932236 -2.436336 -0.000371 0.004320 -0.000169
-9.454686 126.707722 26.821842 177.943724 -17.472527 -3.427229 -1.748272 9.930447 3.236598 -0.128032 0.631072 0.215709 -0.219265 1.087789 0.370748 -1.632594 9.166137 3.004007 -3.760048 21.331011 -0.690573 -3.876176 -2.932322 0.117160 4.519167 5.224425 -4.313016 19.043669 -12.403160 -6.599403 61.499595 -33.517696 -48.968932 0.561956 2.494757 -20.925489 -2.606674 8.828053 1.319930 -8.248931 -13.724757 -0.392605 -64.376132 -45.831170 49.497461 -4.768681 -9.246087 31.527229 9.043450 -61.181286 -11.677726 -142.847595 76.490109 -135.647699 -0.071164 -21.419587 2.233854 0.000517 -0.004600 0.000235 -18.405037 -62.831552 13.370399 113.546072 78.935707 111.899183 -2.152156 -14.934727 -2.434964 -0.002953 0.002461 -0.001341
-9.431152 126.444732 26.825501 177.945716 -17.474000 -3.432295 -1.756327 9.929786 3.236414 -0.135963 0.625973 0.213456 -0.212642 1.092496 0.372477 -1.656082 9.154434 2.996925 -3.736630 21.346838 -0.689236 -3.872168 -2.930695 0.116193 4.540368 5.236817 -4.312870 19.056669 -12.413221 -6.597039 61.485345 -33.508733 -48.941501 0.552008 2.490301 -20.939829 -2.586725 8.837854 1.315268 -8.235059 -13.715275 -0.389386 -64.363280 -45.838377 49.501667 -4.756541 -9.245386 31.507274 9.037948 -61.180720 -11.671466 -142.844025 76.486247 -135.641821 -0.068414 -21.421776 2.234309 0.000291 -0.004252 0.000132 -18.401772 -62.831100 13.373609 113.557420 78.940154 111.913174 -2.153586 -14.933263 -2.431665 -0.001971 0.000895 -0.000895
-9.422913 126.353378 26.826491 177.937087 -17.478178 -3.430861 -1.769523 9.923410 3.231274 -0.117483 0.635594 0.215182 -0.220473 1.086579 0.370071 -1.653804 9.157630 2.997689 -3.765276 21.341812 -0.703228 -3.855470 -2.918445 0.109148 4.542926 5.239578 -4.321401 19.067549 -12.423587 -6.590095 61.472038 -33.503005 -48.924056 0.549001 2.489187 -20.946457 -2.591029 8.837509 1.299844 -8.201489 -13.697510 -0.393186 -64.384053 -45.839515 49.519863 -4.752626 -9.254543 31.487586 9.045066 -61.177641 -11.668404 -142.826526 76.483250 -135.626604 -0.065268 -21.422228 2.237297 -0.002096 -0.003733 -0.000951 -18.383329 -62.830078 13.369129 113.575329 78.943459 111.933134 -2.147909 -14.928789 -2.429853 -0.000150 -0.001163 -0.000068
-9.420080 126.326697 26.826737 177.933592 -17.479391 -3.431582 -1.779477 9.920224 3.230423 -0.115215 0.635440 0.215534 -0.221178 1.086259 0.369809 -1.651094 9.159821 2.996759 -3.778734 21.341277 -0.709234 -3.867482 -2.912398 0.097115 4.542062 5.238781 -4.340869 19.077715 -12.438321 -6.579417 61.449806 -33.490063 -48.885788 0.531587 2.475336 -20.964134 -2.588457 8.839229 1.289637 -8.166794 -13.677718 -0.404370 -64.427558 -45.838188 49.546618 -4.738264 -9.262009 31.469342 9.044628 -61.178218 -11.658400 -142.816477 76.482550 -135.620434 -0.070287 -21.421418 2.241723 -0.002280 -0.003540 -0.001035 -18.375916 -62.831386 13.368849 113.591541 78.945160 111.951868 -2.148988 -14.923669 -2.426917 0.000550 -0.002149 0.000250
